<svg width="19" height="20" viewBox="0 0 19 20" fill="none" xmlns="http://www.w3.org/2000/svg">
<path d="M9.07822 16.7948C9.07822 18.1925 7.94521 19.3255 6.54757 19.3255C6.30655 19.3255 6.14588 19.4604 6.14588 19.6627C6.14588 19.8651 6.30655 20 6.54757 20H12.4524C12.6934 20 12.8541 19.8651 12.8541 19.6627C12.8541 19.4604 12.6934 19.3255 12.4524 19.3255C11.0548 19.3255 9.92178 18.1925 9.92178 16.7948V10.7971C9.92178 9.67664 10.3917 8.60752 11.2173 7.84994L18.9006 0.799475C18.9639 0.741351 19 0.659324 19 0.573356C19 0.236088 18.5983 0 18.0761 0H0.92389C0.401691 0 0 0.236088 0 0.573356C0 0.659324 0.036058 0.741351 0.0993992 0.799476L7.78268 7.84994C8.60825 8.60752 9.07822 9.67664 9.07822 10.7971V16.7948ZM9.54966 8.37069C9.53064 8.38824 9.49065 8.39798 9.46477 8.39798C9.43898 8.39798 9.42921 8.3883 9.41021 8.37086L5.07267 4.38836C4.70098 4.0471 4.99858 3.37268 5.50317 3.37268C7.23044 3.37268 8.1945 3.06914 9.11839 2.79932C10.0021 2.52951 10.8457 2.2597 12.4524 2.2597C13.8937 2.2597 14.3117 3.97777 13.2524 4.95504L9.54966 8.37069ZM16.0108 0.708263C16.6739 0.708263 16.9918 1.52241 16.5042 1.97176L16.3491 2.11471C16.2733 2.18452 16.1685 2.21341 16.0677 2.19224C15.1438 1.8887 14.1797 1.61889 12.4524 1.61889C10.7252 1.61889 9.7611 1.92243 8.83721 2.19224C7.95349 2.46206 7.10994 2.73187 5.50317 2.73187C4.39457 2.73187 3.66801 2.59822 3.06841 2.44989C2.92602 2.41467 2.79586 2.34223 2.68861 2.24217C2.10052 1.69353 2.48874 0.708263 3.29302 0.708263H16.0108Z" fill="url(#paint0_linear_766_748)"/>
<defs>
<linearGradient id="paint0_linear_766_748" x1="9.5" y1="0" x2="9.5" y2="20" gradientUnits="userSpaceOnUse">
<stop stop-color="#D89B50"/>
<stop offset="1" stop-color="#FDECBB"/>
</linearGradient>
</defs>
</svg>
