<svg width="35" height="34" viewBox="0 0 35 34" fill="none" xmlns="http://www.w3.org/2000/svg">
<path d="M32.8981 1.14586C27.3004 7.66521 21.7027 14.1845 16.1049 20.7039C13.9149 18.2667 11.7249 15.8295 9.53489 13.3923C8.44746 12.1821 6.6681 13.9709 7.75106 15.1761C10.2451 17.9516 12.7392 20.7272 15.2333 23.5028C15.6645 23.9827 16.5897 24.0006 17.0171 23.5028C22.9054 16.6451 28.7936 9.7874 34.6819 2.92966C35.7344 1.70388 33.9578 -0.0883899 32.8981 1.14586Z" fill="url(#paint0_linear_346_1593)"/>
<path d="M30.7986 12.1375C32.9353 19.0282 30.1669 26.5325 23.6202 29.8609C17.7726 32.8339 10.4118 31.3938 6.10745 26.4483C1.79106 21.4889 1.35706 14.0424 5.09564 8.62609C9.45647 2.30821 17.8853 0.698527 24.4835 4.39321C25.9016 5.18726 27.175 3.00906 25.7568 2.21492C13.8783 -4.43641 -1.38284 4.72303 0.100357 18.631C1.46599 31.4365 16.6704 38.355 27.1274 30.6463C33.1346 26.2179 35.4217 18.5313 33.2311 11.4668C32.7518 9.92109 30.3158 10.5807 30.7986 12.1375Z" fill="url(#paint1_linear_346_1593)"/>
<defs>
<linearGradient id="paint0_linear_346_1593" x1="21.2089" y1="0.730469" x2="21.2089" y2="23.8695" gradientUnits="userSpaceOnUse">
<stop stop-color="#D89B50"/>
<stop offset="1" stop-color="#FDECBB"/>
</linearGradient>
<linearGradient id="paint1_linear_346_1593" x1="17.0232" y1="0" x2="17.0232" y2="33.8757" gradientUnits="userSpaceOnUse">
<stop stop-color="#D89B50"/>
<stop offset="1" stop-color="#FDECBB"/>
</linearGradient>
</defs>
</svg>
