<svg width="431" height="431" viewBox="0 0 431 431" fill="none" xmlns="http://www.w3.org/2000/svg">
<path d="M204.181 202.258L214.221 0.353516L227.012 202.258L429.673 217.73L227.012 229.352L215.803 429.675L204.181 229.352L0.351562 213.879L204.181 202.258Z" fill="url(#paint0_linear_741_509)"/>
<circle cx="215.016" cy="216.424" r="26.1256" fill="url(#paint1_linear_741_509)"/>
<circle cx="215.898" cy="216.25" r="17.4763" fill="url(#paint2_linear_741_509)"/>
<circle cx="215.014" cy="215.014" r="214.514" stroke="url(#paint3_linear_741_509)"/>
<circle cx="215.013" cy="215.015" r="157.287" stroke="url(#paint4_linear_741_509)"/>
<circle cx="215.082" cy="215.082" r="97.6524" stroke="url(#paint5_linear_741_509)"/>
<line x1="344.955" y1="345.623" x2="366.139" y2="366.807" stroke="url(#paint6_linear_741_509)"/>
<line x1="345.342" y1="86.8613" x2="367.627" y2="64.5759" stroke="url(#paint7_linear_741_509)"/>
<line x1="86.0371" y1="85.3692" x2="63.7517" y2="63.0838" stroke="url(#paint8_linear_741_509)"/>
<line x1="85.4504" y1="344.397" x2="63.359" y2="366.875" stroke="url(#paint9_linear_741_509)"/>
<defs>
<linearGradient id="paint0_linear_741_509" x1="215.012" y1="0.353516" x2="215.012" y2="429.675" gradientUnits="userSpaceOnUse">
<stop stop-color="#72522A"/>
<stop offset="1" stop-color="#D89B50" stop-opacity="0.53"/>
</linearGradient>
<linearGradient id="paint1_linear_741_509" x1="215.016" y1="190.299" x2="215.016" y2="242.55" gradientUnits="userSpaceOnUse">
<stop stop-color="#D89B50"/>
<stop offset="1" stop-color="#72522A"/>
</linearGradient>
<linearGradient id="paint2_linear_741_509" x1="215.898" y1="198.773" x2="215.898" y2="233.726" gradientUnits="userSpaceOnUse">
<stop stop-color="#D89B50" stop-opacity="0.65"/>
<stop offset="1" stop-color="#72522A"/>
</linearGradient>
<linearGradient id="paint3_linear_741_509" x1="9.06027e-07" y1="125.891" x2="430.027" y2="304.136" gradientUnits="userSpaceOnUse">
<stop stop-color="#72522A"/>
<stop offset="1" stop-color="#D89B50"/>
</linearGradient>
<linearGradient id="paint4_linear_741_509" x1="215.013" y1="57.2285" x2="215.013" y2="372.802" gradientUnits="userSpaceOnUse">
<stop stop-color="#D89B50"/>
<stop offset="1" stop-color="#72522A"/>
</linearGradient>
<linearGradient id="paint5_linear_741_509" x1="215.082" y1="116.93" x2="215.082" y2="313.235" gradientUnits="userSpaceOnUse">
<stop stop-color="#D89B50"/>
<stop offset="1" stop-color="#72522A"/>
</linearGradient>
<linearGradient id="paint6_linear_741_509" x1="344.248" y1="346.33" x2="365.432" y2="367.515" gradientUnits="userSpaceOnUse">
<stop stop-color="#72522A"/>
<stop offset="1" stop-color="#D89B50"/>
</linearGradient>
<linearGradient id="paint7_linear_741_509" x1="346.049" y1="87.5684" x2="368.334" y2="65.283" gradientUnits="userSpaceOnUse">
<stop stop-color="#72522A"/>
<stop offset="1" stop-color="#D89B50"/>
</linearGradient>
<linearGradient id="paint8_linear_741_509" x1="86.7442" y1="84.6621" x2="64.4588" y2="62.3767" gradientUnits="userSpaceOnUse">
<stop stop-color="#72522A"/>
<stop offset="1" stop-color="#D89B50"/>
</linearGradient>
<linearGradient id="paint9_linear_741_509" x1="84.7371" y1="343.696" x2="62.6458" y2="366.174" gradientUnits="userSpaceOnUse">
<stop stop-color="#72522A"/>
<stop offset="1" stop-color="#D89B50"/>
</linearGradient>
</defs>
</svg>
