<svg width="121" height="121" viewBox="0 0 121 121" fill="none" xmlns="http://www.w3.org/2000/svg">
<path d="M78.1404 75.067C77.983 74.7473 77.8183 74.4314 77.6478 74.1187C77.4773 73.8059 77.3009 73.4963 77.1203 73.19C75.5355 70.6979 74.1546 68.0497 72.4669 65.475C72.2805 65.2015 72.0904 64.9308 71.8962 64.663C71.6574 64.3339 71.4125 64.0094 71.1608 63.6902C71.2031 63.2702 71.1628 62.8356 71.2261 62.4139C71.284 62.0277 71.3715 61.6476 71.4823 61.2739C72.3157 60.0717 73.6386 59.4029 74.7808 58.5405C75.8583 57.7269 76.6755 56.728 77.1847 55.4733C78.4041 52.4684 77.6457 49.197 76.8998 46.1783C76.8615 46.0236 76.6592 45.8849 76.4993 45.9516C75.0768 46.5454 73.7537 47.3162 72.5489 48.2777C71.3502 49.2345 70.0972 50.4167 69.4469 51.8286C68.7807 53.2752 68.9242 54.8716 69.2584 56.3839C69.5857 57.8643 70.043 59.3135 70.5043 60.7579C70.504 60.7593 70.5032 60.7603 70.5031 60.7617C70.4237 61.3933 70.3627 62.0243 70.396 62.6618C70.3978 62.6972 70.3996 62.733 70.4016 62.7691C69.847 62.1258 69.2604 61.5085 68.6351 60.9242C67.2489 59.6287 65.749 58.4593 64.4116 57.1098C63.207 55.8948 62.115 54.5729 60.8902 53.3781C60.9645 53.0551 61.0103 52.7224 61.0624 52.4003C61.1546 51.8401 61.2217 51.2754 61.2334 50.7078C61.2577 49.5384 61.0124 48.3995 60.562 47.3233C59.7711 45.437 58.6182 43.6832 57.5174 41.9453C57.4096 41.7751 57.3021 41.6049 57.1958 41.435C57.1904 41.4227 57.1851 41.4108 57.1793 41.3985C57.1341 41.3 57.0847 41.2033 57.0314 41.1086C56.2927 38.3862 55.2434 35.4953 52.6309 34.0742C51.1516 33.2695 49.3983 33.0924 47.7624 32.8221C45.9015 32.5146 44.0357 32.2473 42.1656 32.0018C41.9473 31.9732 41.7709 32.2852 41.9026 32.4581C43.8111 34.9584 46.2642 36.9179 48.8012 38.749C51.2181 40.4932 54.0189 42.7136 57.1967 42.1173C57.5908 42.8408 57.9864 43.5641 58.3907 44.2822C58.9378 45.2524 59.5019 46.2208 59.9322 47.2492C60.3677 48.2914 60.6501 49.37 60.6426 50.5053C60.6384 51.1207 60.5674 51.7353 60.4653 52.3412C60.4357 52.52 60.3973 52.6992 60.359 52.878C57.7024 50.4793 54.4411 49.0674 51.1092 47.8536C50.7142 47.3393 50.1124 46.9379 49.5327 46.5924C45.7304 42.0073 40.1554 39.0471 34.2249 38.3034C33.9855 38.2734 33.9226 38.6286 34.1074 38.7362C35.5726 39.5891 36.882 40.6879 37.9499 42.0044C39.0223 43.3261 39.6111 44.9972 40.7683 46.2433C43.2453 48.9105 47.223 48.5698 50.4985 48.1902C50.5233 48.1873 50.5463 48.1825 50.5684 48.1768C53.7893 49.4492 57.0835 50.8709 59.6888 53.1927C59.8693 53.3537 60.0468 53.5189 60.222 53.6874C60.2784 53.7411 60.3341 53.7958 60.3898 53.8505C60.4413 53.9012 60.4924 53.9519 60.5433 54.003C60.5775 54.0373 60.612 54.0714 60.6459 54.1057C61.4376 54.9037 62.1787 55.7502 62.9391 56.5774C62.075 56.2371 61.1379 56.1054 60.1934 56.1934C59.5154 56.2566 58.871 56.4319 58.2392 56.6821C57.6762 56.9052 57.0818 57.0919 56.5184 57.324C52.5198 54.6322 47.7615 51.9936 42.8618 53.7149C42.593 53.8092 42.4995 54.199 42.7788 54.3515C43.481 54.7339 44.1874 55.1184 44.8258 55.6014C45.4037 56.0378 45.9242 56.5462 46.4436 57.0483C47.4198 57.9921 48.4225 58.9613 49.6952 59.4941C50.086 59.6573 50.4908 59.7769 50.9018 59.8543C50.0297 60.4517 49.2532 61.2282 48.566 62.0226C47.15 63.6612 45.6225 65.4874 45.4535 67.7362C45.4366 67.9618 45.6756 68.1504 45.8901 68.0444C48.1665 66.9195 50.2964 65.4683 52.1118 63.6898C53.2611 62.5638 54.2543 61.2069 54.3711 59.6022C55.1198 59.3603 55.8292 58.9998 56.4634 58.5453C56.6044 58.4223 56.7336 58.287 56.8489 58.1399C56.8556 58.1311 56.8623 58.1224 56.8687 58.1136C56.8893 58.079 57.0619 57.8849 57.1117 57.8331C57.1282 57.8159 57.1457 57.7998 57.1636 57.7842L57.1658 57.7833C57.1825 57.7687 57.1994 57.7545 57.2167 57.7406C57.2259 57.7334 57.2352 57.7263 57.2445 57.7193V57.7192C57.2546 57.7115 57.2645 57.7036 57.2748 57.6962C57.318 57.6651 57.7799 57.5035 57.9522 57.4249C58.5879 57.1347 59.2248 56.8623 59.9185 56.7464C61.1856 56.5346 62.5103 56.784 63.6599 57.3439C64.9309 58.653 66.3525 59.796 67.7055 61.0184C68.9838 62.1737 70.0906 63.4455 71.0867 64.793C71.2859 65.0625 71.4806 65.335 71.6715 65.6103C72.6672 67.5201 74.3668 69.109 74.7917 71.3334C72.3486 70.9097 70.5427 72.8163 68.1799 73.0964C68.0179 73.1004 67.8556 73.0976 67.6904 73.0937C66.4365 72.209 65.1675 71.3393 63.8692 70.5223C62.5271 69.6778 61.152 69.0193 59.5545 68.8611C57.9891 68.706 56.3744 68.8797 54.8133 69.0276C53.4084 69.1607 51.9928 69.3556 50.6469 69.7933C49.204 70.2626 47.8691 71.0045 46.8216 72.1119C46.5602 72.3881 46.7554 72.8135 47.122 72.8352C53.8196 73.2314 60.8182 76.9542 67.3844 73.8786C67.4275 73.8585 67.4631 73.8344 67.4923 73.8075C67.6635 73.8548 67.8364 73.8806 68.0106 73.8872C69.4805 73.8756 70.5427 72.9223 71.8174 72.2867C71.0738 73.1341 70.6489 74.1934 70.0198 75.092C69.8394 75.3395 69.6454 75.558 69.4376 75.752C68.8143 76.3339 68.0667 76.6924 67.203 76.9633C67.144 76.9818 67.0853 77.0002 67.0269 77.0187C64.4837 76.2235 61.7803 76.3052 59.1816 76.8589C56.9668 77.3307 54.1019 78.0425 53.0887 80.3192C52.9891 80.543 53.1058 80.7833 53.3642 80.7981C56.1906 80.9595 59.0595 81.6028 61.8823 81.0707C63.9349 80.6838 66.1608 79.5901 67.1069 77.6289C67.2464 77.5932 67.3847 77.5569 67.5206 77.5183C68.2408 77.3149 68.9156 77.0472 69.5029 76.6177C69.6986 76.4746 69.8847 76.3134 70.0594 76.1307C71.2863 75.0407 71.4987 73.0281 72.9859 72.3926C74.3668 71.6511 76.0664 73.1341 76.7952 74.5239C76.9156 74.7454 77.0366 74.9666 77.1583 75.1873C77.6454 76.0701 78.5299 77.2046 79.0548 78.0636C80.0056 79.6186 81.5974 81.5391 82.6545 83.2199C83.5304 84.6126 84.14 88.832 85.9684 86.0971C86.5683 85.1998 78.4291 75.6535 78.1402 75.0669L78.1404 75.067Z" fill="url(#paint0_linear_660_1241)"/>
<circle cx="60.0117" cy="60.0117" r="59.5117" stroke="url(#paint1_linear_660_1241)"/>
<defs>
<linearGradient id="paint0_linear_660_1241" x1="60" y1="32" x2="60" y2="87" gradientUnits="userSpaceOnUse">
<stop stop-color="#D89B50"/>
<stop offset="1" stop-color="#FDECBB"/>
</linearGradient>
<linearGradient id="paint1_linear_660_1241" x1="60.0117" y1="0" x2="60.0117" y2="120.023" gradientUnits="userSpaceOnUse">
<stop stop-color="#D89B50"/>
<stop offset="1" stop-color="#FDECBB"/>
</linearGradient>
</defs>
</svg>
