<svg width="121" height="121" viewBox="0 0 121 121" fill="none" xmlns="http://www.w3.org/2000/svg">
<circle cx="60.0117" cy="60.0117" r="59.5117" stroke="url(#paint0_linear_660_1245)"/>
<path d="M86.9932 52.3293C86.9858 52.0901 86.895 51.8583 86.7354 51.6783L73.4766 37.3164C73.29 37.1166 73.0298 37.0007 72.7572 37.0007C72.7523 36.9982 62.3126 37.0032 62.3075 37.0007H56.6898C56.4296 37.0007 56.1791 37.1043 55.9949 37.2892C55.8108 37.4742 55.7077 37.7257 55.7077 37.9871V46.6971C54.3376 46.522 53.0486 47.3777 52.668 48.7069L48.6586 46.9536C43.3404 44.6725 38.7689 51.5206 42.95 55.5745L46.2008 58.6964L45.2776 63.0588L45.2801 63.0613C45.2064 63.4262 45.3464 63.8035 45.6385 64.0353C45.9307 64.2647 46.3261 64.3115 46.6624 64.1562L50.4755 62.324L53.7017 65.8528L53.1002 68.5358H46.7216L34.2687 52.4056L46.6682 38.9736H52.7622C53.2974 38.9662 53.7296 38.5273 53.7296 37.9872C53.7296 37.4496 53.2975 37.0107 52.7622 37.0008H46.2409C45.9659 37.0008 45.7057 37.1167 45.5191 37.3165L32.2604 51.6784C32.2039 51.7474 32.1548 51.8239 32.118 51.9052C32.0394 52.0384 31.9976 52.1938 32.0001 52.3491V65.8329C32.0001 66.0721 32.086 66.3039 32.2432 66.4839L45.5019 81.6646C45.6075 81.7583 45.7204 81.8446 45.8432 81.9136C45.9709 81.9728 46.1059 82 46.2459 82H72.7533C73.0136 82.0024 73.2665 81.8988 73.4506 81.7139C73.6348 81.529 73.7403 81.2774 73.7403 81.0135V69.8599L85.0348 55.2315V65.4629L75.9478 75.8666V75.8642C75.6041 76.276 75.6507 76.8875 76.0509 77.2426C76.4536 77.5953 77.065 77.5632 77.4235 77.1662L86.7537 66.4835C86.9109 66.3034 86.9993 66.0716 86.9993 65.8325C86.9943 65.8127 87.0066 52.3462 86.9943 52.3285L86.9932 52.3293ZM57.6723 38.9736H61.3258V46.6943L57.6723 46.6968V38.9736ZM55.2784 48.6671C56.1771 48.6696 61.2963 48.6671 62.3082 48.6671H63.72V48.6696C64.1349 48.6696 64.4713 49.0074 64.4713 49.4217C64.4566 49.7053 64.4836 54.8149 64.4713 55.2686V55.271C64.4713 55.6878 64.1349 56.0256 63.72 56.0256H55.276C54.861 56.0256 54.5271 55.6878 54.5247 55.271V49.4217C54.5271 49.0074 54.861 48.6696 55.276 48.6696L55.2784 48.6671ZM71.1224 48.7633H71.12C72.571 48.1493 74.2505 48.6597 75.1221 49.9741C75.9937 51.2909 75.8121 53.0443 74.6875 54.149L71.719 56.9997L66.4353 51.9247V50.8101L71.1224 48.7633ZM57.4759 57.9985H61.5222L63.8817 68.5335H55.1165L57.4759 57.9985ZM63.5355 57.9985C64.3924 58.0355 65.2198 57.6779 65.7845 57.0269C66.3493 56.3783 66.5898 55.5053 66.4352 54.657L70.8204 58.869L71.3802 61.5101L68.7113 60.2278C68.3209 60.0428 67.8568 60.1341 67.5647 60.4522L64.7706 63.51L63.5355 57.9985ZM44.3105 54.149C43.186 53.0443 43.0019 51.291 43.8735 49.9741C44.7451 48.6598 46.4245 48.1493 47.8756 48.7633L52.5603 50.8101V51.9247L47.279 56.9997L44.3105 54.149ZM51.4333 60.4497V60.4521C51.1411 60.1316 50.6746 60.0403 50.2842 60.2277L47.6153 61.51L48.1751 58.8689L52.5603 54.657C52.4081 55.5053 52.6463 56.3783 53.211 57.0268C53.7757 57.6778 54.6031 58.0354 55.4625 57.9984L54.2275 63.5099L51.4333 60.4497ZM71.7752 80.0273H47.2226V70.5087H71.7752V80.0273ZM33.9639 55.232L45.2584 69.8603V78.3954L33.9639 65.464V55.232ZM72.2762 68.5359H65.8951L65.2936 65.8529L68.5198 62.3241L72.3329 64.1563C72.6717 64.3117 73.067 64.2648 73.3592 64.033C73.6514 63.8037 73.7888 63.4264 73.7176 63.0614L72.7944 58.699L76.0452 55.5771C80.2217 51.5279 75.6647 44.6772 70.3367 46.9562L66.3297 48.707C66.008 47.5233 64.94 46.6997 63.7197 46.6972H63.29V38.974H72.328L84.7294 52.406L72.2762 68.5359Z" fill="url(#paint1_linear_660_1245)"/>
<defs>
<linearGradient id="paint0_linear_660_1245" x1="60.0117" y1="0" x2="60.0117" y2="120.023" gradientUnits="userSpaceOnUse">
<stop stop-color="#D89B50"/>
<stop offset="1" stop-color="#FDECBB"/>
</linearGradient>
<linearGradient id="paint1_linear_660_1245" x1="59.5" y1="37" x2="59.5" y2="82" gradientUnits="userSpaceOnUse">
<stop stop-color="#D89B50"/>
<stop offset="1" stop-color="#FDECBB"/>
</linearGradient>
</defs>
</svg>
