<svg width="27" height="24" viewBox="0 0 27 24" fill="none" xmlns="http://www.w3.org/2000/svg">
<mask id="path-1-inside-1_768_452" fill="white">
<path d="M21.5964 4.80078C20.1236 4.80078 18.9246 5.94406 18.9246 7.34471C18.9246 8.74492 20.124 9.88561 21.5964 9.88561C23.0693 9.88561 24.2715 8.74492 24.2715 7.34471C24.2715 5.9445 23.0693 4.80078 21.5964 4.80078ZM21.5964 5.47578C22.6855 5.47578 23.5617 6.30897 23.5617 7.34471C23.5617 8.3804 22.6856 9.21062 21.5964 9.21062C20.5073 9.21062 19.6321 8.37995 19.6321 7.34471C19.6321 6.30902 20.5073 5.47578 21.5964 5.47578ZM21.5964 10.1974C18.9436 10.1974 16.7969 12.2388 16.7969 14.7617V15.2645C16.7973 15.354 16.835 15.4396 16.902 15.5029C16.969 15.5658 17.0591 15.6012 17.1535 15.6008C17.3487 15.6004 17.5067 15.4502 17.5076 15.2645V14.7617C17.5076 12.6013 19.3246 10.8724 21.5964 10.8724C23.8682 10.8724 25.6862 12.6013 25.6862 14.7617V15.2645C25.6866 15.354 25.7243 15.4396 25.7909 15.5029C25.8579 15.5658 25.9484 15.6012 26.0424 15.6008C26.2376 15.6004 26.396 15.4502 26.3969 15.2645V14.7617C26.3969 12.2389 24.2498 10.1974 21.5969 10.1974L21.5964 10.1974Z"/>
</mask>
<path d="M21.5964 10.1974V11.1974H21.61L21.6235 11.197L21.5964 10.1974ZM16.7969 15.2645H15.7969L15.7969 15.2695L16.7969 15.2645ZM16.902 15.5029L16.2153 16.2299L16.2177 16.2321L16.902 15.5029ZM17.1535 15.6008L17.1514 14.6008L17.1491 14.6008L17.1535 15.6008ZM17.5076 15.2645L18.5076 15.2693V15.2645H17.5076ZM25.6862 15.2645H24.6862L24.6862 15.2695L25.6862 15.2645ZM25.7909 15.5029L25.1018 16.2276L25.1066 16.2321L25.7909 15.5029ZM26.0424 15.6008L26.0403 14.6008L26.0379 14.6008L26.0424 15.6008ZM26.3969 15.2645L27.3969 15.2693V15.2645H26.3969ZM21.5969 10.1974V9.1974H21.5833L21.5698 9.19776L21.5969 10.1974ZM21.5964 4.80078V3.80078C19.6177 3.80078 17.9246 5.34651 17.9246 7.34471H18.9246H19.9246C19.9246 6.54161 20.6295 5.80078 21.5964 5.80078V4.80078ZM18.9246 7.34471H17.9246C17.9246 9.34398 19.6197 10.8856 21.5964 10.8856V9.88561V8.88561C20.6284 8.88561 19.9246 8.14587 19.9246 7.34471H18.9246ZM21.5964 9.88561V10.8856C23.5721 10.8856 25.2715 9.34538 25.2715 7.34471H24.2715H23.2715C23.2715 8.14447 22.5664 8.88561 21.5964 8.88561V9.88561ZM24.2715 7.34471H25.2715C25.2715 5.34555 23.5737 3.80078 21.5964 3.80078V4.80078V5.80078C22.5649 5.80078 23.2715 6.54345 23.2715 7.34471H24.2715ZM21.5964 5.47578V6.47578C22.1812 6.47578 22.5617 6.90804 22.5617 7.34471H23.5617H24.5617C24.5617 5.7099 23.1898 4.47578 21.5964 4.47578V5.47578ZM23.5617 7.34471H22.5617C22.5617 7.7793 22.1834 8.21062 21.5964 8.21062V9.21062V10.2106C23.1878 10.2106 24.5617 8.9815 24.5617 7.34471H23.5617ZM21.5964 9.21062V8.21062C21.0103 8.21062 20.6321 7.77959 20.6321 7.34471H19.6321H18.6321C18.6321 8.98031 20.0044 10.2106 21.5964 10.2106V9.21062ZM19.6321 7.34471H20.6321C20.6321 6.90748 21.0123 6.47578 21.5964 6.47578V5.47578V4.47578C20.0024 4.47578 18.6321 5.71055 18.6321 7.34471H19.6321ZM21.5964 10.1974V9.19741C18.4393 9.19741 15.7969 11.6397 15.7969 14.7617H16.7969H17.7969C17.7969 12.8379 19.4479 11.1974 21.5964 11.1974V10.1974ZM16.7969 14.7617H15.7969V15.2645H16.7969H17.7969V14.7617H16.7969ZM16.7969 15.2645L15.7969 15.2695C15.7987 15.6407 15.9558 15.9847 16.2153 16.2299L16.902 15.5029L17.5887 14.776C17.7143 14.8945 17.7959 15.0672 17.7969 15.2596L16.7969 15.2645ZM16.902 15.5029L16.2177 16.2321C16.4738 16.4724 16.8113 16.6023 17.158 16.6008L17.1535 15.6008L17.1491 14.6008C17.3068 14.6001 17.4642 14.6591 17.5863 14.7737L16.902 15.5029ZM17.1535 15.6008L17.1557 16.6008C17.8544 16.5993 18.5038 16.0495 18.5075 15.2693L17.5076 15.2645L16.5076 15.2598C16.5095 14.8508 16.8431 14.6014 17.1514 14.6008L17.1535 15.6008ZM17.5076 15.2645H18.5076V14.7617H17.5076H16.5076V15.2645H17.5076ZM17.5076 14.7617H18.5076C18.5076 13.2 19.8292 11.8724 21.5964 11.8724V10.8724V9.8724C18.82 9.8724 16.5076 12.0025 16.5076 14.7617H17.5076ZM21.5964 10.8724V11.8724C23.3639 11.8724 24.6862 13.2003 24.6862 14.7617H25.6862H26.6862C26.6862 12.0022 24.3725 9.8724 21.5964 9.8724V10.8724ZM25.6862 14.7617H24.6862V15.2645H25.6862H26.6862V14.7617H25.6862ZM25.6862 15.2645L24.6862 15.2695C24.6881 15.6403 24.8447 15.9831 25.1018 16.2276L25.7909 15.5029L26.48 14.7782C26.604 14.8962 26.6852 15.0677 26.6862 15.2596L25.6862 15.2645ZM25.7909 15.5029L25.1066 16.2321C25.3631 16.4728 25.7013 16.6023 26.0469 16.6008L26.0424 15.6008L26.0379 14.6008C26.1955 14.6001 26.3526 14.6587 26.4752 14.7737L25.7909 15.5029ZM26.0424 15.6008L26.0446 16.6008C26.7416 16.5993 27.3931 16.0511 27.3969 15.2693L26.3969 15.2645L25.3969 15.2598C25.3988 14.8492 25.7337 14.6014 26.0403 14.6008L26.0424 15.6008ZM26.3969 15.2645H27.3969V14.7617H26.3969H25.3969V15.2645H26.3969ZM26.3969 14.7617H27.3969C27.3969 11.6397 24.754 9.1974 21.5969 9.1974V10.1974V11.1974C23.7456 11.1974 25.3969 12.8381 25.3969 14.7617H26.3969ZM21.5969 10.1974L21.5698 9.19776L21.5694 9.19777L21.5964 10.1974L21.6235 11.197L21.6239 11.197L21.5969 10.1974Z" fill="url(#paint0_linear_768_452)" mask="url(#path-1-inside-1_768_452)"/>
<path d="M10.1992 12.4922H10.2002L10.7002 12.5049C15.831 12.7633 19.9004 16.975 19.9004 22.1357V23.2529C19.8985 23.3868 19.7874 23.4997 19.6455 23.5H19.6445C19.5943 23.5002 19.5443 23.4857 19.502 23.458L19.4629 23.4258C19.4159 23.378 19.39 23.3145 19.3896 23.25V22.1357C19.3896 17.0561 15.3002 12.9923 10.1992 12.9922C5.09798 12.9922 1.00977 17.0562 1.00977 22.1357V23.2529C1.00785 23.3876 0.897885 23.4997 0.756836 23.5H0.755859C0.688587 23.5003 0.623354 23.4745 0.574219 23.4268H0.575195C0.538979 23.391 0.514647 23.3464 0.504883 23.2988L0.5 23.25V22.1357C0.5 16.8081 4.83552 12.4922 10.1992 12.4922ZM10.1992 0.5C13.0554 0.500071 15.3838 2.82047 15.3838 5.65332C15.3837 8.48533 13.0561 10.7997 10.1992 10.7998C7.34396 10.7998 5.02157 8.48609 5.02148 5.65332C5.02148 2.81875 7.34372 0.5 10.1992 0.5ZM10.1992 1C7.61103 1 5.52441 3.07334 5.52441 5.65332C5.52449 8.2332 7.612 10.2998 10.1992 10.2998C12.786 10.2997 14.8749 8.23454 14.875 5.65332C14.875 3.07297 12.787 1.00007 10.1992 1Z" stroke="url(#paint1_linear_768_452)"/>
<defs>
<linearGradient id="paint0_linear_768_452" x1="21.5969" y1="4.80078" x2="21.5969" y2="15.6008" gradientUnits="userSpaceOnUse">
<stop stop-color="#D89B50"/>
<stop offset="1" stop-color="#FDECBB"/>
</linearGradient>
<linearGradient id="paint1_linear_768_452" x1="10.2" y1="0" x2="10.2" y2="24" gradientUnits="userSpaceOnUse">
<stop stop-color="#D89B50"/>
<stop offset="1" stop-color="#FDECBB"/>
</linearGradient>
</defs>
</svg>
