<svg width="121" height="121" viewBox="0 0 121 121" fill="none" xmlns="http://www.w3.org/2000/svg">
<circle cx="60.0117" cy="60.0117" r="59.5117" stroke="url(#paint0_linear_660_1243)"/>
<path d="M71.6606 27.5912L70.3927 27.1512L69.778 29.2172C79.9018 32.4502 87.778 40.5613 90.698 50.7193C90.8709 51.3315 90.5251 51.9628 89.9104 52.135L88.3351 52.5558L93.9445 58.1418L96 50.5089L94.2134 50.9872C93.5987 51.1593 92.9648 50.7959 92.8111 50.1646C91.3127 44.9038 88.6041 40.1979 85.0117 36.3336C81.4194 32.4885 76.9819 29.5042 71.9872 27.6486L71.6606 27.5912ZM66.397 92.8436C68.5486 92.4418 70.5464 91.8488 72.5635 91.0645C72.6403 91.0262 72.7172 91.0071 72.7748 91.0071C78.1345 88.8454 82.8026 85.3829 86.4141 81.0021C89.7375 76.9465 92.1387 72.1258 93.3106 66.8268C92.2348 66.7885 92.3308 66.7503 91.1398 66.5016C88.3735 78.8213 78.5187 88.3671 66.0128 90.7393C65.3981 90.854 64.7834 90.4523 64.6681 89.821L64.3991 88.2332L58.3095 93.2835L65.7439 96L65.4365 94.1826C65.3212 93.5514 65.7439 92.9392 66.397 92.8436ZM53.5838 26.1373C40.2327 28.6625 29.6094 38.9544 26.6702 52.1732C27.746 52.2115 27.6499 52.2497 28.841 52.4984C31.6073 40.1979 41.5197 30.6329 53.968 28.2607C54.5827 28.146 55.1974 28.5477 55.3127 29.179L55.5816 30.7668L61.6713 25.7165L54.2369 23L54.5443 24.8173C54.6596 25.4295 54.2369 26.0417 53.5838 26.1373ZM27.1889 68.8163C29.0907 75.4735 33.0096 81.4038 38.3885 85.7846C41.2892 88.1376 44.555 90.0314 48.0896 91.3514L49.5688 91.8488L50.1836 89.7828C40.079 86.5498 32.1836 78.4769 29.2636 68.2807C29.0907 67.6685 29.4365 67.0372 30.0512 66.865L31.6265 66.4442L26.0171 60.8774L24 68.4528L25.7866 67.9746C26.4013 67.8215 27.0352 68.185 27.1889 68.8163ZM48.9733 65.8129C48.3394 65.8129 47.8207 65.2964 47.8207 64.6651C47.8207 64.0338 48.3394 63.5173 48.9733 63.5173H57.6371C58.2711 63.5173 58.7898 64.0338 58.7898 64.6651C58.7898 65.2964 58.2711 65.8129 57.6371 65.8129H48.9733ZM48.9733 70.691C48.3394 70.691 47.8207 70.1745 47.8207 69.5432C47.8207 68.912 48.3394 68.3954 48.9733 68.3954H58.5016C59.1355 68.3954 59.6542 68.912 59.6542 69.5432C59.6542 70.1745 59.1355 70.691 58.5016 70.691H48.9733ZM48.9733 60.9539C48.3394 60.9539 47.8207 60.4374 47.8207 59.8061C47.8207 59.1748 48.3394 58.6583 48.9733 58.6583H63.2465C63.8805 58.6583 64.3991 59.1748 64.3991 59.8061C64.3991 60.4374 63.8805 60.9539 63.2465 60.9539H48.9733ZM48.9733 56.0949C48.3394 56.0949 47.8207 55.5784 47.8207 54.9471C47.8207 54.3158 48.3394 53.7993 48.9733 53.7993H64.1302C64.7641 53.7993 65.2828 54.3158 65.2828 54.9471C65.2828 55.5784 64.7641 56.0949 64.1302 56.0949H48.9733ZM48.9733 51.2359C48.3394 51.2359 47.8207 50.7193 47.8207 50.0881C47.8207 49.4568 48.3394 48.9403 48.9733 48.9403H58.0021C58.6361 48.9403 59.1548 49.4568 59.1548 50.0881C59.1548 50.7193 58.6361 51.2359 58.0021 51.2359H48.9733ZM78.9605 49.1507C78.5187 48.8446 78.1345 48.4429 77.635 48.5385C77.2892 48.5959 77.1547 48.749 76.9819 48.9785L71.2764 56.8601C71.238 56.9175 71.1996 56.9748 71.1612 57.0322L64.4184 66.3485L63.9573 69.1033L66.6467 67.9172L79.191 50.5854C79.3447 50.3559 79.46 50.1646 79.4023 49.8202C79.3447 49.4185 79.1526 49.3229 78.9605 49.1507ZM69.1249 68.3763L68.318 69.4859C68.1836 69.658 68.0299 69.7919 67.857 69.8685L62.9392 72.0493C62.0939 72.4319 61.191 71.6858 61.3447 70.825L62.19 65.7172C62.2284 65.5259 62.3052 65.3346 62.4205 65.1816L69.1249 55.9036V43.6986H44.8431V75.2822H69.1249V68.3763Z" fill="url(#paint1_linear_660_1243)"/>
<defs>
<linearGradient id="paint0_linear_660_1243" x1="60.0117" y1="0" x2="60.0117" y2="120.023" gradientUnits="userSpaceOnUse">
<stop stop-color="#D89B50"/>
<stop offset="1" stop-color="#FDECBB"/>
</linearGradient>
<linearGradient id="paint1_linear_660_1243" x1="60" y1="23" x2="60" y2="96" gradientUnits="userSpaceOnUse">
<stop stop-color="#D89B50"/>
<stop offset="1" stop-color="#FDECBB"/>
</linearGradient>
</defs>
</svg>
