<svg width="19" height="19" viewBox="0 0 19 19" fill="none" xmlns="http://www.w3.org/2000/svg">
<path d="M0.41007 18.9995C0.297592 18.9889 0.19315 18.9366 0.117284 18.8529C0.0414174 18.7692 -0.000382395 18.6601 0.00010475 18.5471V13.7266C-0.000743024 13.6666 0.0103317 13.6071 0.0326853 13.5515C0.0550389 13.4959 0.0882255 13.4452 0.130317 13.4026C0.172408 13.3599 0.222564 13.326 0.27787 13.3028C0.333176 13.2797 0.39253 13.2678 0.452481 13.2678C0.512432 13.2678 0.571785 13.2797 0.627091 13.3028C0.682398 13.326 0.732554 13.3599 0.774645 13.4026C0.816736 13.4452 0.849922 13.4959 0.872276 13.5515C0.89463 13.6071 0.905704 13.6666 0.904857 13.7266V14.0948C0.904857 16.3039 2.69572 18.0948 4.90486 18.0948H5.28018C5.34013 18.0939 5.39964 18.105 5.45527 18.1273C5.5109 18.1497 5.56153 18.1829 5.60422 18.225C5.64691 18.2671 5.68081 18.3172 5.70395 18.3725C5.72708 18.4278 5.739 18.4872 5.739 18.5471C5.739 18.6071 5.72708 18.6664 5.70395 18.7217C5.68081 18.777 5.64691 18.8272 5.60422 18.8693C5.56153 18.9114 5.5109 18.9446 5.45527 18.9669C5.39964 18.9893 5.34013 19.0004 5.28018 18.9995H0.452481C0.438352 19.0002 0.424199 19.0002 0.41007 18.9995ZM13.6774 18.9995C13.618 18.9967 13.5597 18.9823 13.5059 18.957C13.452 18.9317 13.4037 18.896 13.3637 18.852C13.3236 18.8081 13.2926 18.7566 13.2725 18.7007C13.2523 18.6447 13.2434 18.5853 13.2461 18.5259C13.2489 18.4665 13.2634 18.4082 13.2887 18.3544C13.314 18.3006 13.3497 18.2523 13.3937 18.2122C13.4377 18.1722 13.4891 18.1412 13.5451 18.1211C13.601 18.1009 13.6604 18.092 13.7198 18.0948H14.0951C16.3043 18.0948 18.0951 16.3039 18.0951 14.0948V13.7266C18.0943 13.6666 18.1054 13.6071 18.1277 13.5515C18.1501 13.4959 18.1833 13.4452 18.2254 13.4026C18.2674 13.3599 18.3176 13.326 18.3729 13.3028C18.4282 13.2797 18.4876 13.2678 18.5475 13.2678C18.6075 13.2678 18.6668 13.2797 18.7221 13.3028C18.7774 13.326 18.8276 13.3599 18.8697 13.4026C18.9118 13.4452 18.945 13.4959 18.9673 13.5515C18.9897 13.6071 19.0007 13.6666 18.9999 13.7266V18.5471C18.9999 18.6671 18.9522 18.7822 18.8674 18.867C18.7825 18.9518 18.6675 18.9995 18.5475 18.9995H13.7198C13.7057 19.0002 13.6915 19.0002 13.6774 18.9995ZM0.403002 5.73946C0.290568 5.72711 0.186841 5.67309 0.112264 5.58804C0.0376875 5.503 -0.00232795 5.39311 0.00010475 5.28003V0.452413C0.000116745 0.332441 0.0477815 0.217387 0.132616 0.132554C0.21745 0.047721 0.332507 5.68748e-05 0.452481 4.48794e-05H5.28018C5.34013 -0.00080288 5.39964 0.0102719 5.45527 0.0326251C5.5109 0.0549783 5.56153 0.088165 5.60422 0.130255C5.64691 0.172346 5.68081 0.2225 5.70395 0.277805C5.72708 0.33311 5.739 0.392463 5.739 0.452413C5.739 0.512363 5.72708 0.571716 5.70395 0.627021C5.68081 0.682326 5.64691 0.73248 5.60422 0.774571C5.56153 0.816661 5.5109 0.849848 5.45527 0.872201C5.39964 0.894554 5.34013 0.905629 5.28018 0.904781H4.90486C2.69572 0.904781 0.904857 2.69564 0.904857 4.90478V5.28003C0.906244 5.34443 0.893864 5.40838 0.868544 5.4676C0.843225 5.52683 0.80555 5.57997 0.75804 5.62346C0.710529 5.66696 0.654279 5.69981 0.59305 5.71981C0.531822 5.73982 0.467028 5.74652 0.403002 5.73946ZM18.498 5.73946C18.3856 5.72711 18.2819 5.67309 18.2073 5.58804C18.1327 5.503 18.0927 5.39311 18.0951 5.28003V4.90478C18.0951 2.69564 16.3043 0.904781 14.0951 0.904781H13.7198C13.6599 0.905629 13.6004 0.894554 13.5447 0.872201C13.4891 0.849848 13.4385 0.816661 13.3958 0.774571C13.3531 0.73248 13.3192 0.682326 13.2961 0.627021C13.2729 0.571716 13.261 0.512363 13.261 0.452413C13.261 0.392463 13.2729 0.33311 13.2961 0.277805C13.3192 0.2225 13.3531 0.172346 13.3958 0.130255C13.4385 0.088165 13.4891 0.0549783 13.5447 0.0326251C13.6004 0.0102719 13.6599 -0.00080288 13.7198 4.48794e-05H18.5475C18.6675 5.68748e-05 18.7825 0.047721 18.8674 0.132554C18.9522 0.217387 18.9999 0.332441 18.9999 0.452413V5.28003C19.0013 5.34443 18.9889 5.40838 18.9636 5.4676C18.9383 5.52683 18.9006 5.57997 18.8531 5.62346C18.8056 5.66696 18.7493 5.69981 18.6881 5.71981C18.6269 5.73982 18.5621 5.74652 18.498 5.73946Z" fill="url(#paint0_linear_768_442)"/>
<defs>
<linearGradient id="paint0_linear_768_442" x1="9.5" y1="19" x2="9.5" y2="0" gradientUnits="userSpaceOnUse">
<stop stop-color="#D89B50"/>
<stop offset="1" stop-color="#FDECBB"/>
</linearGradient>
</defs>
</svg>
