<svg width="17" height="22" viewBox="0 0 17 22" fill="none" xmlns="http://www.w3.org/2000/svg">
<path d="M17 0.734406V5.13421C17.0011 5.47153 16.7344 5.76577 16.354 5.8455L10.2 7.17277V18.7003C10.2 20.5482 7.956 22 5.1 22C2.244 22 0 20.5481 0 18.7003C0 16.8525 2.244 15.4005 5.1 15.4005C6.30382 15.3813 7.48636 15.6691 8.5 16.2291V2.20115C8.49893 1.86383 8.76562 1.5696 9.146 1.48986L15.946 0.0232564C16.1999 -0.0335751 16.4709 0.0150068 16.677 0.155251C16.8821 0.295495 17.0011 0.508901 17 0.734406Z" fill="url(#paint0_linear_768_451)"/>
<defs>
<linearGradient id="paint0_linear_768_451" x1="8.5" y1="0" x2="8.5" y2="22" gradientUnits="userSpaceOnUse">
<stop stop-color="#D89B50"/>
<stop offset="1" stop-color="#FDECBB"/>
</linearGradient>
</defs>
</svg>
