<svg width="19" height="25" viewBox="0 0 19 25" fill="none" xmlns="http://www.w3.org/2000/svg">
<path d="M9.91753 5.00033C6.6657 5.04834 4.00801 7.77294 4.00004 11.0737C3.99427 12.6801 4.59985 14.1976 5.70146 15.345C6.63812 16.3227 7.15489 17.5872 7.15489 18.9057V20.8364C7.15489 21.7239 7.55054 22.5213 8.17344 23.0517C8.17344 23.0821 8.16998 23.1114 8.16998 23.1418C8.16998 24.1675 8.99126 25 10.0006 25C11.0111 25 11.8312 24.1664 11.8312 23.1418C11.8312 23.1114 11.8312 23.0821 11.8278 23.0517C12.4507 22.5213 12.8463 21.7239 12.8463 20.8364V18.8974C12.8463 17.5814 13.3596 16.3227 14.2963 15.3485C15.3944 14.2034 16 12.693 16 11.0949C16 9.45213 15.3656 7.90891 14.2109 6.7546C13.0655 5.60365 11.5382 4.97722 9.91755 5.00063L9.91753 5.00033ZM12.3884 21.3902C12.1761 21.4804 11.2245 21.8515 10.0029 21.8515C8.78365 21.8515 7.82968 21.4804 7.61745 21.3902C7.57593 21.2099 7.55516 21.0273 7.55516 20.8352V20.2931C8.00156 20.4547 8.89901 20.7193 10.0029 20.7193C11.1068 20.7193 12.0054 20.4559 12.4507 20.2931V20.8352C12.4507 21.0272 12.4276 21.2134 12.3884 21.3902ZM12.4506 18.8998V19.8622C12.108 19.9969 11.1726 20.3153 10.0029 20.3153C8.83669 20.3153 7.89773 19.9945 7.55513 19.8622V18.9091C7.55513 18.8494 7.55167 18.792 7.55167 18.7323C7.99807 18.8939 8.89551 19.1609 10.0029 19.1609C11.1103 19.1609 12.0077 18.8974 12.4541 18.7323C12.4541 18.7862 12.4506 18.8424 12.4506 18.8998ZM10.0029 24.5949C9.28194 24.5949 8.68559 24.0528 8.58867 23.3479C9.0051 23.5903 9.48957 23.7319 10.0029 23.7319C10.5162 23.7319 11.0007 23.5914 11.4171 23.3479C11.3202 24.0492 10.7238 24.5949 10.0029 24.5949ZM10.0029 23.321C9.02586 23.321 8.17803 22.7332 7.78815 21.8914C8.23455 22.0447 9.03395 22.2602 10.0029 22.2602C10.9718 22.2602 11.7712 22.0447 12.2176 21.8914C11.8277 22.7367 10.9799 23.321 10.0029 23.321ZM14.016 15.0664C13.1532 15.9621 12.6249 17.0896 12.4864 18.2826C12.1796 18.4056 11.2141 18.7498 10.0029 18.7498C8.78942 18.7498 7.82394 18.4056 7.51594 18.2826C7.37752 17.0872 6.84806 15.9631 5.98638 15.064C4.95859 13.9915 4.39454 12.5759 4.398 11.0771C4.40953 7.99547 6.88728 5.45336 9.91979 5.409H9.99938C11.4816 5.409 12.8751 5.98741 13.9328 7.04586C15.0078 8.12187 15.6007 9.56088 15.6007 11.096C15.6042 12.5877 15.0403 13.9962 14.016 15.0664Z" fill="url(#paint0_linear_865_435)"/>
<path d="M10.1364 8.11337C10.1245 8.04836 10.0674 8 10 8C9.93341 8 9.87632 8.04836 9.86364 8.11337C9.63452 9.40247 8.40251 10.6361 7.11337 10.8636C7.04836 10.8755 7 10.9326 7 11C7 11.0666 7.04836 11.1237 7.11337 11.1364C8.40247 11.3655 9.63612 12.5999 9.86364 13.8866C9.87553 13.9516 9.93261 14 10 14C10.0666 14 10.1237 13.9516 10.1364 13.8866C10.3655 12.5975 11.5975 11.3639 12.8866 11.1364C12.9516 11.1245 13 11.0674 13 11C13 10.9334 12.9516 10.8763 12.8866 10.8636C11.5975 10.6361 10.3631 9.40172 10.1364 8.11337ZM10 13.3348C9.6242 12.3018 8.69663 11.3742 7.66356 10.9984C8.69657 10.6226 9.62416 9.69503 10 8.66196C10.3758 9.69497 11.3034 10.6226 12.3364 10.9984C11.3034 11.3742 10.3758 12.3018 10 13.3348Z" fill="url(#paint1_linear_865_435)"/>
<path d="M18.8923 16.5876L16.3163 15.0302C16.2151 14.9677 16.0855 15.0058 16.0288 15.1118C15.9691 15.2178 16.0056 15.3536 16.1068 15.4129L18.6828 16.9703C18.7162 16.9894 18.7526 17 18.789 17C18.8619 17 18.9338 16.9597 18.9733 16.8887C19.0299 16.7837 18.9935 16.648 18.8923 16.5876Z" fill="url(#paint2_linear_865_435)"/>
<path d="M16.2089 8C16.2454 8 16.2819 7.98409 16.3153 7.95544L18.8944 5.61771C18.9958 5.52382 19.0292 5.3249 18.9725 5.16575C18.9157 5.0066 18.786 4.9541 18.6847 5.04322L16.1056 7.38094C16.0042 7.47484 15.9708 7.67376 16.0275 7.8329C16.064 7.94271 16.136 8 16.2089 8Z" fill="url(#paint3_linear_865_435)"/>
<path d="M9.5 3.99994C9.77381 3.99994 10 3.89038 10 3.74986V0.250079C10 0.11313 9.77381 0 9.5 0C9.22619 0 9 0.10956 9 0.250079V3.7523C9 3.89044 9.22619 3.99994 9.5 3.99994Z" fill="url(#paint4_linear_865_435)"/>
<path d="M2.89355 7.38094L0.315238 5.04321C0.213931 4.9541 0.0842549 5.00661 0.0275142 5.16575C-0.0292265 5.32489 0.00421345 5.52858 0.105522 5.61771L2.68383 7.95544C2.71726 7.98408 2.75373 8 2.79021 8C2.86315 8 2.93508 7.93953 2.97459 7.8329C3.02828 7.67854 2.99485 7.47484 2.89355 7.38094Z" fill="url(#paint5_linear_865_435)"/>
<path d="M2.68195 15.0302L0.105445 16.5876C0.00420786 16.647 -0.029202 16.7827 0.0274913 16.8887C0.0659625 16.9597 0.136828 17 0.211746 17C0.24819 17 0.284637 16.9894 0.318047 16.9703L2.89456 15.4129C2.99579 15.3536 3.0292 15.2179 2.97251 15.1118C2.9148 15.0058 2.78218 14.9677 2.68195 15.0302Z" fill="url(#paint6_linear_865_435)"/>
<defs>
<linearGradient id="paint0_linear_865_435" x1="10" y1="5" x2="10" y2="25" gradientUnits="userSpaceOnUse">
<stop stop-color="#D89B50"/>
<stop offset="1" stop-color="#FDECBB"/>
</linearGradient>
<linearGradient id="paint1_linear_865_435" x1="10" y1="8" x2="10" y2="14" gradientUnits="userSpaceOnUse">
<stop stop-color="#D89B50"/>
<stop offset="1" stop-color="#FDECBB"/>
</linearGradient>
<linearGradient id="paint2_linear_865_435" x1="17.5" y1="15" x2="17.5" y2="17" gradientUnits="userSpaceOnUse">
<stop stop-color="#D89B50"/>
<stop offset="1" stop-color="#FDECBB"/>
</linearGradient>
<linearGradient id="paint3_linear_865_435" x1="17.5" y1="5" x2="17.5" y2="8" gradientUnits="userSpaceOnUse">
<stop stop-color="#D89B50"/>
<stop offset="1" stop-color="#FDECBB"/>
</linearGradient>
<linearGradient id="paint4_linear_865_435" x1="9.5" y1="0" x2="9.5" y2="4" gradientUnits="userSpaceOnUse">
<stop stop-color="#D89B50"/>
<stop offset="1" stop-color="#FDECBB"/>
</linearGradient>
<linearGradient id="paint5_linear_865_435" x1="1.5" y1="5" x2="1.5" y2="8" gradientUnits="userSpaceOnUse">
<stop stop-color="#D89B50"/>
<stop offset="1" stop-color="#FDECBB"/>
</linearGradient>
<linearGradient id="paint6_linear_865_435" x1="1.5" y1="15" x2="1.5" y2="17" gradientUnits="userSpaceOnUse">
<stop stop-color="#D89B50"/>
<stop offset="1" stop-color="#FDECBB"/>
</linearGradient>
</defs>
</svg>
