<svg width="121" height="121" viewBox="0 0 121 121" fill="none" xmlns="http://www.w3.org/2000/svg">
<path fill-rule="evenodd" clip-rule="evenodd" d="M54.0883 36.0001C58.0199 36.0001 61.5687 37.8063 63.9076 40.6992C70.9548 35.9588 80.481 41.0225 80.481 49.5797C80.481 58.6811 69.8486 63.5919 62.9563 57.7352C54.9869 65.6138 41.4516 59.9158 41.4516 48.6923C41.4491 41.6812 47.1092 36 54.0889 36L54.0883 36.0001ZM61.0946 65.2418C48.6853 61.503 35.8155 68.0058 31.1482 80.3916C30.6156 81.7432 31.5961 83 32.8549 83H75.3222V82.9976C76.5786 82.9976 77.501 81.731 77.0725 80.5131C76.9224 80.0901 76.7602 79.6696 76.5883 79.2588H87.1433V79.2564C88.3997 79.2564 89.3221 77.9898 88.8936 76.7719C84.887 65.3977 71.8913 60.0442 61.0946 65.2418ZM72.0469 78.4201C72.0057 78.3593 71.9694 78.2961 71.9379 78.2305C70.4393 75.661 68.4082 73.4464 65.9946 71.7347C55.7303 64.4566 41.3936 68.0275 35.6726 79.266H72.5045C72.3592 78.9792 72.2066 78.6972 72.0469 78.4201ZM74.6396 75.5249C72.4996 72.1653 69.5678 69.3697 66.1181 67.4004C73.3518 65.7352 80.7256 69.1045 84.2774 75.5249H74.6396ZM65.7983 43.9103C67.2266 47.4352 66.9942 51.4391 65.1906 54.7598C69.587 58.7417 76.7601 55.6349 76.7601 49.5795C76.7601 43.8619 70.2989 40.6651 65.7983 43.9103ZM60.3948 42.3569C54.7904 36.7292 45.1675 40.7354 45.1675 48.6921C45.1675 56.646 54.7904 60.655 60.3948 55.0274C63.8785 51.5268 63.8785 45.855 60.3948 42.3569Z" fill="url(#paint0_linear_660_1242)"/>
<circle cx="60.0117" cy="60.0117" r="59.5117" stroke="url(#paint1_linear_660_1242)"/>
<defs>
<linearGradient id="paint0_linear_660_1242" x1="60" y1="36" x2="60" y2="83" gradientUnits="userSpaceOnUse">
<stop stop-color="#D89B50"/>
<stop offset="1" stop-color="#FDECBB"/>
</linearGradient>
<linearGradient id="paint1_linear_660_1242" x1="60.0117" y1="0" x2="60.0117" y2="120.023" gradientUnits="userSpaceOnUse">
<stop stop-color="#D89B50"/>
<stop offset="1" stop-color="#FDECBB"/>
</linearGradient>
</defs>
</svg>
