<svg width="26" height="19" viewBox="0 0 26 19" fill="none" xmlns="http://www.w3.org/2000/svg">
<path d="M19.2409 18.9985C19.2416 18.9994 19.241 19.0006 19.2399 19.0006C19.112 18.9998 18.9845 18.9381 18.9075 18.8237L14.3239 12.0866C13.0312 10.1866 10.191 10.3109 9.06927 12.3167C8.95935 12.5124 8.71335 12.5815 8.51968 12.4716C8.32392 12.3617 8.25483 12.1178 8.36475 11.922L11.1253 6.98514C11.1954 6.86162 11.3211 6.78415 11.4603 6.77892C11.6027 6.77578 11.7335 6.84068 11.811 6.95583L19.5743 18.3663C19.7 18.5516 19.6518 18.8028 19.4676 18.9263C19.3982 18.9739 19.3216 18.996 19.242 18.9964C19.2409 18.9964 19.2403 18.9977 19.2409 18.9985Z" fill="url(#paint0_linear_766_758)"/>
<path d="M24.3674 18.9987C24.368 18.9992 24.3676 19.0002 24.3668 19.0002C24.2335 18.9995 24.1037 18.9326 24.0287 18.8128L16.427 6.83017C14.8077 4.27765 11.0512 4.37458 9.56566 7.00722L7.42707 10.7973C7.31715 10.993 7.07115 11.06 6.87747 10.9501C6.68172 10.8402 6.61472 10.5942 6.72464 10.4005L12.4759 0.206492C12.5461 0.0829649 12.6738 0.0055002 12.8162 0.00026638C12.947 -0.00496771 13.0925 0.0672635 13.1668 0.187649L24.7062 18.3785C24.8266 18.5658 24.77 18.815 24.5827 18.9354C24.5163 18.9779 24.4417 18.9968 24.3681 18.9971C24.3673 18.9971 24.3669 18.9981 24.3674 18.9987Z" fill="url(#paint1_linear_766_758)"/>
<path d="M0.897406 19.0003C0.897321 19 0.897081 18.9999 0.89681 18.9999C0.824717 18.9998 0.74952 18.9809 0.682663 18.9381C0.492139 18.8198 0.435609 18.5707 0.553902 18.3812L6.00801 9.62333C6.07501 9.51655 6.18493 9.44955 6.31054 9.43594C6.43093 9.42234 6.5576 9.46839 6.64239 9.55947L12.1823 15.3746C12.3351 15.5358 12.3299 15.7922 12.1686 15.9451C12.0074 16.0979 11.751 16.0927 11.5981 15.9315L9.98065 14.2336C8.17684 12.3401 5.07103 12.6584 3.68883 14.8784L1.2409 18.8102C1.16352 18.9336 1.03183 19.0006 0.898003 19.0007C0.897732 19.0007 0.897492 19.0006 0.897406 19.0003Z" fill="url(#paint2_linear_766_758)"/>
<path d="M24.9199 19.0002H0.405119C0.183192 19.0002 0 18.8201 0 18.5951C0 18.37 0.180056 18.1899 0.405119 18.1899H24.9207C25.1427 18.1899 25.3259 18.37 25.3259 18.5951C25.3259 18.8201 25.1458 19.0002 24.9207 19.0002H24.9199Z" fill="url(#paint3_linear_766_758)"/>
<defs>
<linearGradient id="paint0_linear_766_758" x1="13.9784" y1="6.77881" x2="13.9784" y2="19.0006" gradientUnits="userSpaceOnUse">
<stop stop-color="#D89B50"/>
<stop offset="1" stop-color="#FDECBB"/>
</linearGradient>
<linearGradient id="paint1_linear_766_758" x1="15.7207" y1="0" x2="15.7207" y2="19.0002" gradientUnits="userSpaceOnUse">
<stop stop-color="#D89B50"/>
<stop offset="1" stop-color="#FDECBB"/>
</linearGradient>
<linearGradient id="paint2_linear_766_758" x1="6.39276" y1="9.43359" x2="6.39276" y2="19.0007" gradientUnits="userSpaceOnUse">
<stop stop-color="#D89B50"/>
<stop offset="1" stop-color="#FDECBB"/>
</linearGradient>
<linearGradient id="paint3_linear_766_758" x1="12.6629" y1="18.1899" x2="12.6629" y2="19.0002" gradientUnits="userSpaceOnUse">
<stop stop-color="#D89B50"/>
<stop offset="1" stop-color="#FDECBB"/>
</linearGradient>
</defs>
</svg>
