<svg width="14" height="21" viewBox="0 0 14 21" fill="none" xmlns="http://www.w3.org/2000/svg">
<path d="M3.59314 16.8267C3.40344 16.8267 3.2177 16.7345 3.1057 16.5644C2.60217 15.801 2.33594 14.9141 2.33594 14.0001C2.33594 12.2384 3.0476 11.0904 3.90744 9.87711C4.09387 9.61438 4.45787 9.55184 4.7206 9.73828C4.98334 9.92448 5.04564 10.2887 4.85944 10.5514C4.0906 11.6364 3.5026 12.5793 3.5026 14.0001C3.5026 14.6854 3.7021 15.3499 4.07964 15.9223C4.25697 16.1911 4.18277 16.553 3.91397 16.7303C3.8148 16.7954 3.70327 16.8267 3.59314 16.8267Z" fill="url(#paint0_linear_766_746)"/>
<path d="M7 2.7377C8.02597 4.68603 9.1098 6.19383 10.0284 7.47157C11.6569 9.73677 12.8333 11.3734 12.8333 14C12.8333 17.2165 10.2165 19.8333 7 19.8333C3.7835 19.8333 1.16667 17.2165 1.16667 14C1.16667 11.3734 2.34313 9.73677 3.97157 7.47157C4.8902 6.1936 5.97403 4.68603 7 2.7377ZM7 0C4.08333 7 0 8.75 0 14C0 17.8659 3.1339 21 7 21C10.8659 21 14 17.8659 14 14C14 8.75 9.91667 7 7 0Z" fill="url(#paint1_linear_766_746)"/>
<defs>
<linearGradient id="paint0_linear_766_746" x1="3.65135" y1="9.63086" x2="3.65135" y2="16.8267" gradientUnits="userSpaceOnUse">
<stop stop-color="#D89B50"/>
<stop offset="1" stop-color="#FDECBB"/>
</linearGradient>
<linearGradient id="paint1_linear_766_746" x1="7" y1="0" x2="7" y2="21" gradientUnits="userSpaceOnUse">
<stop stop-color="#D89B50"/>
<stop offset="1" stop-color="#FDECBB"/>
</linearGradient>
</defs>
</svg>
