<svg width="121" height="121" viewBox="0 0 121 121" fill="none" xmlns="http://www.w3.org/2000/svg">
<circle cx="60.0117" cy="60.0117" r="59.5117" stroke="url(#paint0_linear_660_1244)"/>
<path d="M60.0367 78.9996C59.8412 78.9996 59.6457 78.92 59.5081 78.7752L42.1493 60.4451C37.949 56.0073 37.949 48.7822 42.1566 44.3519C44.206 42.1873 46.936 41 49.8401 41C52.7443 41 55.4742 42.1945 57.5237 44.3591L60.0439 47.016L62.4772 44.4533C64.5266 42.2887 67.2566 41.1014 70.1608 41.1014C73.0649 41.1014 75.7948 42.2959 77.8444 44.4533C82.0519 48.8911 82.0519 56.1161 77.8444 60.5539L60.5653 78.7756C60.4277 78.9204 60.2395 78.9996 60.0367 78.9996ZM49.8327 42.4404C47.327 42.4404 44.9736 43.4684 43.2063 45.3434C39.5202 49.231 39.5202 55.5584 43.2063 59.4461L60.0362 77.2263L76.7795 59.5546C80.4656 55.667 80.4656 49.3326 76.7795 45.4449C75.0052 43.5771 72.6516 42.5418 70.1462 42.5418C67.6407 42.5418 65.287 43.5699 63.5128 45.4449L60.5581 48.5651C60.4205 48.7099 60.2322 48.7895 60.0295 48.7895C59.834 48.7895 59.6384 48.7099 59.5008 48.5651L56.4592 45.3508C54.6922 43.4757 52.3385 42.4404 49.8327 42.4404Z" fill="url(#paint1_linear_660_1244)"/>
<defs>
<linearGradient id="paint0_linear_660_1244" x1="60.0117" y1="0" x2="60.0117" y2="120.023" gradientUnits="userSpaceOnUse">
<stop stop-color="#D89B50"/>
<stop offset="1" stop-color="#FDECBB"/>
</linearGradient>
<linearGradient id="paint1_linear_660_1244" x1="60" y1="41" x2="60" y2="79" gradientUnits="userSpaceOnUse">
<stop stop-color="#D89B50"/>
<stop offset="1" stop-color="#FDECBB"/>
</linearGradient>
</defs>
</svg>
